<svg xmlns="http://www.w3.org/2000/svg" xmlns:xlink="http://www.w3.org/1999/xlink" version="1.1" id="Layer_1" x="0px" y="0px" viewBox="0 0 632.4 195.3" style="enable-background:new 0 0 632.4 195.3;" xml:space="preserve" width="632.4"  height="195.3" >
<style type="text/css">
	.st0{fill:white;}
	.st1{fill:#F0047F;}
</style>
<path class="st0" d="M308.7,184h-14.5v-21.6h-57.9V184h-14.7l-0.5-33.8h7.1c3.5-3.4,6.3-8.3,8.4-14.8c2.1-6.5,3.4-13.8,4-22l2.3-39  h55.5v75.8h11.2L308.7,184z M245.3,150.1H283V86.7h-25.7l-1.5,24.8C254.8,128,251.3,140.9,245.3,150.1z M348.3,163.5  c-9.3,0-16.8-2.9-22.6-8.8c-5.8-5.9-8.7-13.7-8.7-23.4v-1.8c0-6.5,1.3-12.4,3.8-17.5c2.5-5.1,6.1-9.1,10.6-12  c4.6-2.9,9.6-4.3,15.2-4.3c8.9,0,15.8,2.8,20.6,8.5c4.9,5.7,7.3,13.7,7.3,24.1v5.9h-42.7c0.4,5.4,2.2,9.7,5.4,12.8  c3.2,3.1,7.1,4.7,11.9,4.7c6.7,0,12.2-2.7,16.4-8.2l7.9,7.6c-2.6,3.9-6.1,6.9-10.5,9.1C358.6,162.5,353.7,163.5,348.3,163.5z   M346.5,107.5c-4,0-7.3,1.4-9.8,4.2c-2.5,2.8-4.1,6.7-4.7,11.8h28v-1.1c-0.3-4.9-1.6-8.6-3.9-11.1  C353.8,108.8,350.6,107.5,346.5,107.5z M441.3,162.3h-14.7v-26.4h-25.4v26.4h-14.7V97h14.7v27.2h25.4V97h14.7V162.3z M472.7,117.7  h14.4c5.4,0,10,0.9,14,2.8c4,1.9,7,4.5,9.1,7.8c2.1,3.3,3.1,7.2,3.1,11.7c0,6.7-2.4,12.1-7.1,16.2c-4.8,4.1-11.1,6.1-19,6.2H458V97  h14.7V117.7z M472.7,129.5v21.1H487c3.6,0,6.4-0.9,8.5-2.7c2.1-1.8,3.1-4.3,3.1-7.6c0-3.3-1-5.9-3.1-7.8c-2-1.9-4.8-2.9-8.2-2.9  H472.7z M568.6,108.8h-28.4v53.5h-14.6V97h43V108.8z M617.7,97h14.6v65.4h-14.6v-43.6l-25.6,43.6h-14.6V97h14.6v43.6L617.7,97z"/>
<path class="st1" d="M3.3,51c3.3-4.5,8.6-7.4,14.5-7.4L175,43.7c9.8,0,17.5,7.6,17.5,17.3v35.2c-0.4,0-0.7-0.1-1.1-0.1h-9.5  c-5.6,0-9.9,4-9.9,8.3v30.1c0,4.4,4.3,8.3,9.9,8.3h9.5c0.4,0,0.7,0,1.1-0.1v35.2c0,9.3-7.1,16.9-16.9,16.9  c-82.8,0-91.9,0.3-157.9,0.3c-9.8,0-17.7-8.5-17.7-17.9V61.3C0,57.5,1.2,53.9,3.3,51 M78.9,74.4c-27,0-41,22.2-41,43.9  s13.6,43.6,41,43.6s40.6-21.8,40.6-43.6S106.3,74.4,78.9,74.4z M78.7,89c-17.4,0-26.2,14.6-26.2,29.2s8.9,29.2,26.2,29.2  s26.2-14.6,26.2-29.2S96.2,89,78.7,89z M132.7,144.4V159h14.6v-14.6H132.7z M148.7,77.3h-17.5l2.9,61.1h11.7L148.7,77.3z   M183.8,102.1h5.7c3.4,0,5.9,2.9,5.9,6.2v22.5c0,3.3-2.6,6.2-5.9,6.2h-5.7c-3.4,0-5.9-2.9-5.9-6.2v-22.5  C177.9,105.1,180.5,102.1,183.8,102.1z M149.4,0.5L38.6,33.1c-0.7,0-0.7,0.4-0.7,0.7c0,0.7,0.4,1.2,0.7,1.2h126.2V13.5  c0-4.2-1.7-7.9-4.7-10.6C157,0.1,153.2-0.6,149.4,0.5z"/>
</svg>