<svg id="Layer_1" data-name="Layer 1" xmlns="http://www.w3.org/2000/svg" viewBox="0 0 357.35 338.45"><defs><style>.cls-1,.cls-2{fill:#fff;stroke:#000;}.cls-1,.cls-2,.cls-3,.cls-4,.cls-5{stroke-miterlimit:10;}.cls-1{stroke-width:7.9px;}.cls-2{stroke-width:8.08px;}.cls-3,.cls-4,.cls-5{fill:#231f20;stroke:#231f20;}.cls-3{stroke-width:0.25px;}.cls-4{stroke-width:0.24px;}.cls-5{stroke-width:0.35px;}</style></defs><path class="cls-1" d="M605.13,268.32l0-.05a15.82,15.82,0,0,1,21.52-.07L807.76,438.55a13.9,13.9,0,0,1,.07,20.4l0,0a15.82,15.82,0,0,1-21.52.07L605.21,288.71A13.89,13.89,0,0,1,605.13,268.32Z" transform="translate(-503.83 -210.6)"/><path class="cls-2" d="M562.8,270.05h0a15.85,15.85,0,0,1,21.56-.07L804.82,477.4a13.93,13.93,0,0,1,.07,20.44h0a15.86,15.86,0,0,1-21.57.07L562.87,290.49A13.93,13.93,0,0,1,562.8,270.05Z" transform="translate(-503.83 -210.6)"/><path class="cls-1" d="M560.19,309.27l0,0a15.82,15.82,0,0,1,21.52-.07L762.82,479.5a13.89,13.89,0,0,1,.08,20.39l0,.05a15.82,15.82,0,0,1-21.52.07L560.27,329.66A13.89,13.89,0,0,1,560.19,309.27Z" transform="translate(-503.83 -210.6)"/><path class="cls-1" d="M542.72,351v-.07c.06-8,6.93-14.37,15.33-14.31L813.2,338.4c8.41.06,15.17,6.57,15.11,14.53V353c-.07,8-6.93,14.37-15.33,14.31l-255.16-1.79C549.42,365.45,542.66,359,542.72,351Z" transform="translate(-503.83 -210.6)"/><path class="cls-2" d="M513.74,380.28h0c.06-8,6.94-14.4,15.36-14.34l310.67,2.18c8.43.06,15.2,6.58,15.14,14.56h0c-.06,8-6.94,14.4-15.36,14.34l-310.67-2.18C520.45,394.78,513.68,388.26,513.74,380.28Z" transform="translate(-503.83 -210.6)"/><path class="cls-1" d="M540.82,410V410c.06-8,6.93-14.37,15.33-14.31l255.15,1.79c8.41.06,15.17,6.56,15.11,14.53V412c-.06,8-6.93,14.37-15.33,14.31l-255.16-1.79C547.52,424.5,540.76,418,540.82,410Z" transform="translate(-503.83 -210.6)"/><rect class="cls-1" x="640.56" y="247.11" width="30.5" height="270.6" rx="9.31" transform="translate(-503.3 -211.49) rotate(0.08)"/><rect class="cls-2" x="671.73" y="221.73" width="30.5" height="323.27" rx="9.31" transform="translate(-503.3 -211.54) rotate(0.08)"/><rect class="cls-1" x="702.89" y="248.56" width="30.5" height="270.6" rx="9.31" transform="translate(-503.3 -211.58) rotate(0.08)"/><path class="cls-1" d="M562.19,459.07l-.05,0a13.89,13.89,0,0,1-.18-20.39L740.89,266.28a15.81,15.81,0,0,1,21.52-.17l.05,0a13.89,13.89,0,0,1,.17,20.39L583.71,458.91A15.82,15.82,0,0,1,562.19,459.07Z" transform="translate(-503.83 -210.6)"/><path class="cls-2" d="M564.22,499.18h0a13.92,13.92,0,0,1-.18-20.43L781.9,268.88a15.85,15.85,0,0,1,21.57-.17h0a13.93,13.93,0,0,1,.18,20.44L585.79,499A15.85,15.85,0,0,1,564.22,499.18Z" transform="translate(-503.83 -210.6)"/><path class="cls-1" d="M605.62,501.46l0,0a13.9,13.9,0,0,1-.18-20.4L784.32,308.66a15.82,15.82,0,0,1,21.52-.17l0,.05a13.88,13.88,0,0,1,.18,20.39L627.14,501.29A15.82,15.82,0,0,1,605.62,501.46Z" transform="translate(-503.83 -210.6)"/><path class="cls-3" d="M517.05,543.25l-.86-.82a2.59,2.59,0,0,1,0-3.82l44.47-42.14a3,3,0,0,1,4,0l.87.82a2.61,2.61,0,0,1,0,3.82l-44.47,42.14A3,3,0,0,1,517.05,543.25Z" transform="translate(-503.83 -210.6)"/><path class="cls-3" d="M853.89,541.46l-.86.82a3,3,0,0,1-4,0l-44.47-42.14a2.61,2.61,0,0,1,0-3.82l.86-.82a3,3,0,0,1,4,0l44.47,42.14A2.61,2.61,0,0,1,853.89,541.46Z" transform="translate(-503.83 -210.6)"/><path class="cls-4" d="M561.22,268.58l-1,1a2.86,2.86,0,0,1-3.88,0l-40.76-38.62a2.49,2.49,0,0,1,0-3.68l1-1a2.85,2.85,0,0,1,3.87,0l40.77,38.63A2.5,2.5,0,0,1,561.22,268.58Z" transform="translate(-503.83 -210.6)"/><path class="cls-4" d="M804.35,268.17l-1.08-.91a2.5,2.5,0,0,1-.2-3.67l38.51-40.65a2.84,2.84,0,0,1,3.87-.2l1.07.92a2.5,2.5,0,0,1,.21,3.67L808.22,268A2.85,2.85,0,0,1,804.35,268.17Z" transform="translate(-503.83 -210.6)"/><path class="cls-5" d="M505.45,239.41l7.18,6.11a4.53,4.53,0,0,0,6.15-.31l16.5-17.41a4,4,0,0,0-.34-5.83l-7.18-6.11a4.53,4.53,0,0,0-6.15.31l-16.5,17.42A4,4,0,0,0,505.45,239.41Z" transform="translate(-503.83 -210.6)"/><path class="cls-5" d="M834.58,212.21l-6.28,6.95a4,4,0,0,0,.48,5.81l18.75,15.23a4.53,4.53,0,0,0,6.14-.45l6.28-6.94a4,4,0,0,0-.47-5.82l-18.75-15.23A4.54,4.54,0,0,0,834.58,212.21Z" transform="translate(-503.83 -210.6)"/></svg>