<svg id="Layer_1" data-name="Layer 1" xmlns="http://www.w3.org/2000/svg" viewBox="0 0 750.68 677.76"><defs><style>.cls-1,.cls-3,.cls-4{stroke:#000;}.cls-1,.cls-2,.cls-3,.cls-4{stroke-miterlimit:10;}.cls-2{fill:#fff;stroke:#fff;}.cls-3,.cls-4{fill:none;}.cls-4{stroke-width:5px;}</style></defs><path d="M307.16,392.38c-5.33-2.64-10.63-5.58-14.5-7.86A144.36,144.36,0,0,0,307.16,392.38Z" transform="translate(-199.84 -24.66)"/><path d="M322.15,398.38a138.24,138.24,0,0,1-15-6C312.65,395.08,318.15,397.45,322.15,398.38Z" transform="translate(-199.84 -24.66)"/><path class="cls-1" d="M480.71,329.38c-1.76-14.27-9.46-24.43-22.93-42.2-4-5.25-7.42-9.27-22.47-25.68-12.13-13.21-22.24-24.06-29.35-31.64-2.24-3.73-5.49-9.23-9.3-16-3.38-6-5.07-9-5.89-10.83-1-2.17-6.49-14.6-3.2-27.84,4.36-17.51,21.38-25.38,23.89-26.49,20.05-15.28,24-20.69,22.93-22.47-2.26-3.93-29.73,7.52-41.28,15.59a102.11,102.11,0,0,0-9.17,7.34,73.53,73.53,0,0,0-8.71,9.17,53.17,53.17,0,0,0-9.42,19.9,51.16,51.16,0,0,0,1.62,18.62A156.85,156.85,0,0,0,406,256a2.57,2.57,0,0,1,1.47.89,2.8,2.8,0,0,1,.27,2.6c6.67,13,21.55,21.65,25.86,35.81q-15.6,3.61-31.73,7-9,1.89-17.89,3.67Q292,331.05,293.6,340.38q.54,3.24,12.38,4.59c15.23-6.24,28-11.13,37.61-14.68,14.7-5.45,19.54-6.91,22.2-7.68,12-3.49,14.39-3.11,28.24-7,12-3.37,13.29-4.52,22.47-6.88a169.16,169.16,0,0,1,26.14-4.59A50.73,50.73,0,0,1,463.28,328a34,34,0,0,1,.46,11.92c-.52,3.67-1.5,6.21-3.21,10.55-2.51,6.37-4,10.12-6.88,13.76-3.55,4.47-7.6,6.71-12.38,9.17-14.58,7.5-21.88,11.25-30.27,13.76-19.81,5.91-36.41,5.21-48.61,4.59a187.92,187.92,0,0,1-55.49-11.47c-11.57,3-14.22,5.51-14.22,7.34,0,4.4,15.43,7.9,31.19,11.46a248.37,248.37,0,0,0,32.82,5.61,260,260,0,0,0,42.39.81l11.46-2.29q2.85-1,5.72-2.08c9.78-3.64,19-7.57,27.76-11.68l20.11-13.85,4.81-4.8C482.29,351.2,481.43,335.26,480.71,329.38Z" transform="translate(-199.84 -24.66)"/><path d="M292.66,384.52c-3.78-2.34-5.88-3.89-5.94-3.78A48.82,48.82,0,0,0,292.66,384.52Z" transform="translate(-199.84 -24.66)"/><path d="M478.49,389.6a23.17,23.17,0,0,1,.15-17.35,21.9,21.9,0,0,1,6.42-8.25,112.91,112.91,0,0,1,21.79-18.57c7.9-5.15,17.41-11.19,24.76-8,1.23.53,1,.73,4.36,2.52,8.3,4.49,12.57,4.9,12.61,6.42s-3.79,2.45-11,4.59c-11.78,3.49-17.79,5.29-23.76,8-9.18,4.15-12.07,6.46-13.74,8.4-1.53,1.78-5,5.9-4.69,11.13.21,3.67,2.17,6.22,3.67,8.25,2.45,3.31,6.22,9.39,13.76,21.55,5.56,9,10.49,18.7,10.55,18.81h0s4,9.24,8.25,17.88c1.27,2.57,3.12,6.21,5.5,10.55q2.4,5.73,1.38,6.42-2.6,1.77-27.3-28.94l-25.68-30.53Z" transform="translate(-199.84 -24.66)"/><path d="M639.74,568q7.92-20.85,15.85-41.68c16.36-11.14,20.93-12.19,22-11,1.86,2-6.52,11-15.59,30.27-2.7,5.72-4.61,10.55-5.81,13.76q-2.31,5.06-4.59,10.39-2.58,6.06-4.89,11.93a29.23,29.23,0,0,0-3.67,7.64c-.65,2.12-.83,3.61-1.83,6.42a40.7,40.7,0,0,1-2.14,4.89,45.26,45.26,0,0,0-4,9.48,46,46,0,0,0-1.53,7.64A6,6,0,0,0,634.8,622c3.84,4.31,14.91-1.47,15.59,0s-9.43,10.77-18.65,8.26a11,11,0,0,1-5-2.78c-4.62-4.57-3.16-11.82-3-12.67q4.84-14.19,9.71-28.39Z" transform="translate(-199.84 -24.66)"/><path d="M365.79,322.61c-27.84,9.11-57.86,14.94-75.93,38.65-2.46,3.41-.11,8.33-4.57,11.1-13.13-15.67,3.91-23.95,11.14-34.64q6.09-2.61,12.44-5.09A436,436,0,0,1,383,311c-10.72-.6-18.27,2.36-19.1,6.4C363.76,318.27,363.7,320,365.79,322.61Z" transform="translate(-199.84 -24.66)"/><path d="M285.29,372.36c0-4.17.24-8.28,4.57-11.1-.9,23.46,22.67,24.69,38.88,32.61a20.06,20.06,0,0,1,.34,4.24c-12.07.75-21.72-5.7-32.66-8.33C293.72,383.48,283.69,380.76,285.29,372.36Z" transform="translate(-199.84 -24.66)"/><path d="M365.79,322.61l-55.22,8.14q25.77-6.56,52.55-15.09,4.35-1.4,8.64-2.82a135.61,135.61,0,0,1,59.42-13.73,130.86,130.86,0,0,1,26.14,2.75Z" transform="translate(-199.84 -24.66)"/><path d="M441.81,121.83q10.63-2.35,21.87-4.48c13.82-2.59,27.16-4.65,40-6.27A231,231,0,0,1,592,123.35l11.46,12.44q2.84,7,5.66,14l-.09,23.55a13.19,13.19,0,0,1-11,9.13c-7.16-5-6.8-12.23-7.48-19.14,0-8.43-1-16.6-8-23.19-3.85-3.62-7.91-6.13-22.19-9.19s-23.41-5-38.34-5.61a234.85,234.85,0,0,0-56.66,5.18,252.46,252.46,0,0,0-25.41,6.75,202.12,202.12,0,0,0-47.71,23.84l-10.55-9.63A135.87,135.87,0,0,1,419.25,129q7.62-2.58,15.6-5C437.18,123.2,439.51,122.51,441.81,121.83Z" transform="translate(-199.84 -24.66)"/><path class="cls-1" d="M556.61,335.11q28.53,1.25,57.46,2.27,40.84,1.44,81,2.39a181.05,181.05,0,0,1,21.37.23c6.39.46,10.33,1,15.42,1.13,2.63.09,4.47.05,5.88,0,8.16-.1,12.31-.18,15.72-1.7,1.89-.83,3.5-2.19,6.73-4.89a34.65,34.65,0,0,0,8.56-9.47,28.5,28.5,0,0,0,2.14-4.59c-.62.05-1.59.14-2.75.31A53,53,0,0,0,758,323.26c-6.69,2.15-16.3,1.43-16.82-.61s7.84-5.82,19.26-11c6.54-3,9.9-4.47,14.68-5.81,8.66-2.42,18.4-5.14,23.23-.3,1,1,3.2,3.75,2.75,10.09a32.61,32.61,0,0,1-1.52,7.64,15.61,15.61,0,0,1-2.28,5.31l-6.19,9.15c-1.58,1.84-3.35,4.43-2.54,6.33,1,2.4,5.57,2.4,11.92,2.75s12.84,1.24,19.26,1.84c7.86.73,14.81,1.59,19.27,2.14l9.78,1.22c3.58.52,4.87.78,7.34.92,4.79.26,7.57.41,9.47-1.23.72-.61,2.36-2.38,2.14-7.33-.62-14.47-15.74-26.44-14.37-28.13.48-.58,3,0,13.46,6.73a15.62,15.62,0,0,1,7,5.19,15.39,15.39,0,0,1,2.54,5.19c11.61,31.46-.47,44-37.31,38.76-5-.71-9-.88-13.21-1.51-12.27-1.85-16.13-3.65-29.68-6.36s-20.21-4-24.46-1.84c-3.84,1.95-6.94,6.81-13.14,16.51-4.55,7.12-4,7.29-9.17,15.6-4.3,6.83-5.57,8.1-10.92,16.45-2.63,4.11-4.28,6.85-7.73,12.59l-16.21,26.91c-9.31,17.63-13.84,25.28-16.2,28.73a101.06,101.06,0,0,0-7.87,13.58,1.44,1.44,0,0,1-.09.2l-34.67,60.53-4.54-4.85q1.57-8.75,3.14-17.48a497.91,497.91,0,0,1,36.74-75.5C719.7,407.91,734,384,734.22,383.73c3.52-5.18,5.74-11.16,9.11-16.44,1.77-2.78,3-4.48,2.45-6.12-1.39-4.2-12.91-3.93-18.78-3.57-5.85-.69-11-1.22-15.16-1.63-11.08-1.06-16.42-1.31-29-2.44-5.86-.52-10.94-1-15-1.45-49.2-1.89-83-3.41-96.42-4.62A99.49,99.49,0,0,0,533.87,351c-2.52,1-11.44,3.9-20.62-.12a22,22,0,0,1-6.49-4.39A40,40,0,0,1,524,336.94a46.36,46.36,0,0,1,8.26-1.14C538.08,335.34,546.32,334.91,556.61,335.11Z" transform="translate(-199.84 -24.66)"/><path d="M347.25,426.14" transform="translate(-199.84 -24.66)"/><path d="M285.8,211.06" transform="translate(-199.84 -24.66)"/><path d="M482.08,279.85" transform="translate(-199.84 -24.66)"/><path d="M472,289.94c-26.14,6.42,0,0-20.63,8.71l6.42,1.38-21.41,7.41.63,0,9.25-3,18.86-6.22,17-4.58,28-7.8S498.13,283.52,472,289.94Z" transform="translate(-199.84 -24.66)"/><path d="M484.83,287.18l-23.38,3.21-30.27,5.05L383.94,306l-40.81,13.76L303.69,333l-14.68,11-8.71,13.3-.92,5.5,3.67,9.63,3.67,8.26,6,6.88,7.34,3.67,14.22,5.5,25.68,6.88,29.81,1.83,35.77-1.37L439,392.66l25.16-17.06,10.62-16.42,6-15.13-.46-11.92L476.58,317l-11.47-18.8,19.72-5.5,25.23-6.88-13.76-.46Z" transform="translate(-199.84 -24.66)"/><path class="cls-2" d="M436.68,305.53c-9.27-1.45-14.5,2.62-28.43,6.88-20.39,6.23-16.34,3.83-38.52,10.55-29.24,8.84-23.12,9-39.9,13.29-6.41,1.64-12.44,2.92-19.72,7.34-6,3.66-15.06,9.14-15.59,17.43-.67,10.35,12.33,18.21,15.59,20.18,5.2,3.14,10.72,4.28,21.55,6.42a238.94,238.94,0,0,0,33,4.13c10.48.59,16.75.94,25.68,0a114.83,114.83,0,0,0,25.23-5.51,92.24,92.24,0,0,0,22-10.55c8.42-5.59,15.37-10.2,19.72-19.26,3.92-8.16,3.75-15.81,3.67-19.72-.15-6.64-.19-13.36-4.59-19.72C449.89,307.6,438.71,305.85,436.68,305.53Z" transform="translate(-199.84 -24.66)"/><path class="cls-1" d="M489,374.32" transform="translate(-199.84 -24.66)"/><path class="cls-1" d="M388.07,213.81" transform="translate(-199.84 -24.66)"/><path d="M428.89,132.18" transform="translate(-199.84 -24.66)"/><path class="cls-1" d="M618.29,243.16" transform="translate(-199.84 -24.66)"/><line class="cls-3" x1="197.86" y1="222.17" x2="207.86" y2="234.83"/><path class="cls-1" d="M281.37,348.94a60.59,60.59,0,0,1,10.39-9.78c4-3,6.32-4.68,9.79-5.5,8.52-2,18,2.64,17.73,4.89-.11,1-2.17,1.16-5.5,2.29-1.55.52-17.6,6.18-20.18,17.66a18.6,18.6,0,0,0,1.6,11.69,22.5,22.5,0,0,0,4.59,5.73,30,30,0,0,0,5.5,4.13,40.78,40.78,0,0,0,6.19,3,68.51,68.51,0,0,0,7.34,2.52A131.67,131.67,0,0,0,334.41,389c11.45,1.72,14.81.65,15.37,2.3.89,2.63-6.44,9.19-14.91,10.54-3.23.52-7.78-.56-16.74-2.75-7.67-1.87-11.6-2.85-16.28-4.89-6-2.62-9.2-4-12.53-7.34-5.53-5.5-7.36-12.28-9.17-19a29,29,0,0,1-1.23-7.34A27,27,0,0,1,281.37,348.94Z" transform="translate(-199.84 -24.66)"/><path class="cls-1" d="M331.43,411.69" transform="translate(-199.84 -24.66)"/><path d="M485.29,379.82l12.84,11.62c3.24,2.05,14.44,9.68,17.74,23.85a35.57,35.57,0,0,1,.61,12.53" transform="translate(-199.84 -24.66)"/><path class="cls-1" d="M780,386.24" transform="translate(-199.84 -24.66)"/><rect class="cls-4" x="2.5" y="2.5" width="745.68" height="672.76"/><rect class="cls-4" x="21.76" y="21.76" width="704.41" height="634.24"/></svg>