<svg xmlns:xlink="http://www.w3.org/1999/xlink" xmlns="http://www.w3.org/2000/svg" width="20" height="20" viewBox="0 0 20 20" fill="none">
<path fill-rule="evenodd" clip-rule="evenodd" d="M10 20C15.493 20 20 15.5294 20 9.97647C19.9531 4.47059 15.493 0 10 0C4.46009 0 0 4.47059 0 10.0235C0 15.5294 4.46009 20 10 20Z" fill="url(#paint0_linear)"/>
<path fill-rule="evenodd" clip-rule="evenodd" d="M8.41242 17.1429C8.88707 17.1429 10.5039 17.1429 10.9521 17.1429V10.2858H12.6328L12.8569 8.03814H10.9521V6.70481C10.9521 6.20957 11.2882 6.09529 11.5123 6.09529L12.8569 6.13338V3.80957H10.9521C8.7859 3.80957 8.41242 5.33338 8.41242 6.40005V8.00005H7.14258V10.2477H8.41242V17.1429Z" fill="white"/>
<defs>
<linearGradient id="paint0_linear" x1="9.98066" y1="20.0096" x2="9.98122" y2="8.65031" gradientUnits="userSpaceOnUse">
<stop stop-color="#004F9F"/>
<stop offset="1" stop-color="#005CA9"/>
</linearGradient>
</defs>
</svg>