<svg xmlns:xlink="http://www.w3.org/1999/xlink" xmlns="http://www.w3.org/2000/svg" width="20" height="20" viewBox="0 0 20 20" fill="none">
<path fill-rule="evenodd" clip-rule="evenodd" d="M10 20C15.493 20 20 15.5294 20 9.97647C20 4.47059 15.493 0 10 0C4.50704 0 0 4.47059 0 10.0235C0 15.5294 4.50704 20 10 20Z" fill="url(#paint0_radial)"/>
<path fill-rule="evenodd" clip-rule="evenodd" d="M13.3334 3.66675H6.95245C5.14293 3.66675 3.71436 5.09532 3.71436 6.90484V13.3334C3.71436 15.1429 5.19055 16.5715 6.95245 16.5715H13.381C15.1905 16.5715 16.6191 15.1429 16.6191 13.3334V6.90484C16.6191 5.14294 15.1429 3.66675 13.3334 3.66675ZM15.2858 13.3334C15.2858 14.3334 14.381 15.2858 13.3334 15.2858H6.90483C5.90483 15.2858 4.95245 14.381 4.95245 13.3334V6.90484C4.95245 5.90484 5.85721 4.95246 6.90483 4.95246H13.381C14.381 4.95246 15.3334 5.85722 15.3334 6.90484V13.3334H15.2858ZM13.5715 5.85722C14.0477 5.85722 14.4286 6.23818 14.4286 6.71437C14.4286 7.19056 14.0477 7.57151 13.5715 7.57151C13.0953 7.57151 12.7144 7.19056 12.7144 6.71437C12.7144 6.23818 13.0953 5.85722 13.5715 5.85722ZM10.1429 6.90484C11.9048 6.90484 13.381 8.33341 13.381 10.1429C13.381 11.9048 11.9525 13.381 10.1429 13.381C8.38102 13.381 6.90483 11.9525 6.90483 10.1429C6.90483 8.33341 8.38102 6.90484 10.1429 6.90484ZM10.1429 12.0477C9.04769 12.0477 8.19055 11.1906 8.19055 10.0953C8.19055 9.00008 9.04769 8.14294 10.1429 8.14294C11.2382 8.14294 12.0953 9.00008 12.0953 10.0953C12.0953 11.1906 11.2382 12.0477 10.1429 12.0477Z" fill="white"/>
<defs>
<radialGradient id="paint0_radial" cx="0" cy="0" r="1" gradientUnits="userSpaceOnUse" gradientTransform="translate(0.41061 19.6192) scale(31.6561 31.7305)">
<stop stop-color="#F8E931"/>
<stop offset="0.08" stop-color="#F8E931"/>
<stop offset="0.43" stop-color="#E71C77"/>
<stop offset="1" stop-color="#204C9C"/>
</radialGradient>
</defs>
</svg>