<svg xmlns:xlink="http://www.w3.org/1999/xlink" xmlns="http://www.w3.org/2000/svg" width="20" height="20" viewBox="0 0 20 20" fill="none">
<circle cx="10" cy="10" r="10" fill="#38ACE8"/>
<path fill-rule="evenodd" clip-rule="evenodd" d="M9.85986 13.0049L12.7247 15.201C12.797 15.2552 12.8965 15.2733 12.9868 15.2372C13.0772 15.201 13.1405 15.1378 13.1585 15.0383L15.3456 5.57607C15.3727 5.47666 15.3366 5.37725 15.2552 5.30495C15.1739 5.24168 15.0745 5.22361 14.9751 5.25976L3.90414 9.6791C3.79569 9.72429 3.73242 9.8237 3.73242 9.94119C3.73242 10.0587 3.80472 10.1581 3.92221 10.1942L6.94074 11.2155L9.85986 13.0049Z" fill="#FDFDFD"/>
<path fill-rule="evenodd" clip-rule="evenodd" d="M7.99805 14.668L8.6849 13.5112L8.3234 11.8211L13.52 6.89569C13.5471 6.86858 13.5471 6.82339 13.529 6.78724C13.5019 6.76013 13.4567 6.75109 13.4296 6.76917L6.95874 11.2156L7.85344 14.4872C7.86248 14.5776 7.91672 14.6408 7.99805 14.668Z" fill="#CDDDEA"/>
<path fill-rule="evenodd" clip-rule="evenodd" d="M9.85977 13.005L8.29628 14.6046C8.22398 14.6679 8.13361 14.695 8.04323 14.6679L8.00708 14.6588L8.33243 11.812L9.85977 13.005Z" fill="#ADC6D9"/>
</svg>