<svg xmlns:xlink="http://www.w3.org/1999/xlink" xmlns="http://www.w3.org/2000/svg" width="20" height="20" viewBox="0 0 20 20" fill="none">
<path fill-rule="evenodd" clip-rule="evenodd" d="M10 20C15.493 20 20 15.5294 20 9.97647C19.9531 4.47059 15.493 0 10 0C4.50704 0 0 4.47059 0 10.0235C0 15.5294 4.46009 20 10 20Z" fill="url(#paint0_linear)"/>
<path fill-rule="evenodd" clip-rule="evenodd" d="M10.2384 3.28564C6.66702 3.28564 3.80987 6.28564 3.80987 9.95231C3.80987 11.1904 4.1432 12.3809 4.71463 13.3809L3.57178 16.9523L7.14321 15.7618C8.04797 16.2856 9.14321 16.5714 10.2384 16.5714C13.8099 16.5714 16.667 13.5714 16.667 9.90469C16.667 6.28564 13.8099 3.28564 10.2384 3.28564ZM10.2384 15.5714C9.14321 15.5714 8.09559 15.238 7.23844 14.6666L5.14321 15.3333L5.80987 13.238C5.1432 12.3333 4.76225 11.1904 4.76225 9.95231C4.76225 6.85707 7.19082 4.33326 10.1908 4.33326C13.1908 4.33326 15.6194 6.85707 15.6194 9.95231C15.667 13.0475 13.2384 15.5714 10.2384 15.5714ZM8.66701 7.19041C8.80987 7.52374 9.1432 8.33326 9.1432 8.4285C9.19082 8.52374 9.19082 8.61898 9.1432 8.71422C9.09559 8.80945 9.04797 8.90469 9.00035 8.99993C8.90511 9.09517 8.80987 9.23803 8.76225 9.28564C8.66701 9.38088 8.6194 9.47612 8.71464 9.61898C8.80987 9.76184 9.1432 10.2856 9.61939 10.7142C10.0956 11.1428 10.6194 11.4285 10.8099 11.5237C11.0003 11.619 11.048 11.5237 11.1432 11.4285C11.1908 11.3333 11.3337 11.238 11.4289 11.1428C11.5242 11.0475 11.5718 10.9999 11.667 10.9523C11.7623 10.9047 11.8575 10.9047 11.9527 10.9523C12.048 10.9999 12.9051 11.238 13.2384 11.3333C13.4765 11.3809 13.5242 11.4761 13.5242 11.5714C13.5718 11.8095 13.667 12.1428 13.4289 12.4285C13.2861 12.5714 12.9051 13.0475 12.0956 13.1428C11.0003 13.238 9.6194 12.3333 8.80987 11.619C8.04797 10.9047 6.95273 9.61898 6.95273 8.52374C6.95273 7.71422 7.3813 7.28564 7.52416 7.14279C7.76226 6.85707 8.09559 6.90469 8.33368 6.95231C8.47654 6.90469 8.57178 6.95231 8.66701 7.19041Z" fill="white"/>
<defs>
<linearGradient id="paint0_linear" x1="9.9769" y1="0.000353794" x2="9.9769" y2="23.4411" gradientUnits="userSpaceOnUse">
<stop stop-color="#75B949"/>
<stop offset="0.85" stop-color="#009F39"/>
<stop offset="1" stop-color="#75B949"/>
</linearGradient>
</defs>
</svg>